<?xml version="1.0" encoding="UTF-8"?>
<svg xmlns="http://www.w3.org/2000/svg" viewBox="0 0 841.89 320.31">
  <g fill="currentColor">
    <path d="M181.2,208.88s-6.98,19.22-33.67,19.22h-31.37l76.47-137.7h-99.64l4.45,21.04h1.86s6.98-19.22,33.67-19.22h27.37l-76.47,137.7h103.64l-4.45-21.04h-1.86Z"/>
    <path d="M258.2,92.22v-1.82h-53.83v1.82h9.29c2.69,0,4.87,2.18,4.87,4.87v126.14c0,2.69-2.18,4.87-4.87,4.87h-9.29v1.82h53.83v-1.82h-9.04c-2.69,0-4.87-2.18-4.87-4.87v-126.14c0-2.69,2.18-4.87,4.87-4.87h9.04Z"/>
    <path d="M271.85,228.1v1.82h109.26l-4.45-21.04h-1.86s-6.98,19.22-33.67,19.22h-26.36V97.09c0-2.69,2.18-4.87,4.87-4.87h9.12v-1.82h-57.26v1.82h9.81c2.69,0,4.87,2.18,4.87,4.87v126.14c0,2.69-2.18,4.87-4.87,4.87h-9.47Z"/>
    <path d="M392.43,228.1v1.82h109.26l-4.45-21.04h-1.86s-6.98,19.22-33.67,19.22h-26.36V97.09c0-2.69,2.18-4.87,4.87-4.87h9.12v-1.82h-57.26v1.82h9.81c2.69,0,4.87,2.18,4.87,4.87v126.14c0,2.69-2.18,4.87-4.87,4.87h-9.47Z"/>
    <path d="M620.91,208.88h-1.86s-6.98,19.22-33.67,19.22h-29.81v-73.85h3.28c26.68,0,33.67,19.22,33.67,19.22h1.86l4.45-21.04h-43.26v-60.21h26.37c26.68,0,33.67,19.22,33.67,19.22h1.86l4.45-21.04h-109.26v1.82h9.45c2.69,0,4.87,2.18,4.87,4.87v126.14c0,2.69-2.18,4.87-4.87,4.87h-9.45v1.82h112.7l-4.45-21.04Z"/>
    <path d="M704.07,163.85h3.44c9.86,0,40.96-6.71,40.96-36.73s-31.1-36.73-40.96-36.73h-69.29v1.82h9.46c2.69,0,4.87,2.18,4.87,4.87v126.14c0,2.69-2.18,4.87-4.87,4.87h-9.46v1.82h57.26v-1.82h-9.46c-2.69,0-4.87-2.18-4.87-4.87v-59.37h15.26c3.72,0,5.81,4.66,5.81,4.66l17.59,61.4h38.22c-5.35-13.01-53.96-66.06-53.96-66.06ZM681.15,162.03v-69.81h26.36c7.46,0,14.15,13.02,14.15,34.91s-10.13,34.91-17.59,34.91h-22.92Z"/>
  </g>
</svg>
